<svg xmlns="http://www.w3.org/2000/svg" width="1900" height="2280" viewBox="0 0 1900 2280" role="img" aria-labelledby="title desc">
  <title id="title">VineContainer viewport overlay lifecycle logic</title>
  <desc id="desc">Editor module, selected actor overlay, Slate widget, lifecycle hazards, and cleanup flow for FVineContainerViewportOverlay and SVineContainerViewportOverlay.</desc>

  <defs>
    <style>
      .bg { fill: #f8fafc; }
      .title { fill: #111827; font-family: "Segoe UI", Arial, sans-serif; font-size: 36px; font-weight: 800; }
      .subtitle { fill: #475569; font-family: "Segoe UI", Arial, sans-serif; font-size: 15px; }
      .section { fill: #ffffff; stroke: #cbd5e1; stroke-width: 1.6; }
      .bootLane { fill: #f0f9ff; stroke: #7dd3fc; }
      .selectionLane { fill: #ecfdf5; stroke: #6ee7b7; }
      .widgetLane { fill: #faf5ff; stroke: #d8b4fe; }
      .actionLane { fill: #fffbeb; stroke: #fbbf24; }
      .cleanupLane { fill: #f8fafc; stroke: #94a3b8; }
      .stateLane { fill: #fff7ed; stroke: #fdba74; }
      .label { fill: #0f172a; font-family: "Segoe UI", Arial, sans-serif; font-size: 20px; font-weight: 800; }
      .nodeTitle { fill: #111827; font-family: "Segoe UI", Arial, sans-serif; font-size: 16px; font-weight: 800; }
      .body { fill: #1f2937; font-family: "Segoe UI", Arial, sans-serif; font-size: 13px; }
      .small { fill: #475569; font-family: "Segoe UI", Arial, sans-serif; font-size: 12px; }
      .mono { fill: #172554; font-family: Consolas, "Cascadia Code", monospace; font-size: 12px; }
      .monoGreen { fill: #064e3b; font-family: Consolas, "Cascadia Code", monospace; font-size: 12px; }
      .monoPurple { fill: #4c1d95; font-family: Consolas, "Cascadia Code", monospace; font-size: 12px; }
      .monoOrange { fill: #7c2d12; font-family: Consolas, "Cascadia Code", monospace; font-size: 12px; }
      .bootNode { fill: #dbeafe; stroke: #2563eb; stroke-width: 1.8; }
      .selectionNode { fill: #ccfbf1; stroke: #0f766e; stroke-width: 1.8; }
      .widgetNode { fill: #ede9fe; stroke: #7c3aed; stroke-width: 1.8; }
      .actionNode { fill: #fef3c7; stroke: #d97706; stroke-width: 1.8; }
      .cleanupNode { fill: #e2e8f0; stroke: #64748b; stroke-width: 1.8; }
      .warnNode { fill: #fee2e2; stroke: #dc2626; stroke-width: 1.8; }
      .stateNode { fill: #ffedd5; stroke: #ea580c; stroke-width: 1.8; }
      .whiteNode { fill: #ffffff; stroke: #94a3b8; stroke-width: 1.5; }
      .arrow { stroke: #334155; stroke-width: 2.2; fill: none; marker-end: url(#arrow); }
      .softArrow { stroke: #64748b; stroke-width: 1.9; stroke-dasharray: 7 7; fill: none; marker-end: url(#softArrow); }
      .greenArrow { stroke: #0f766e; stroke-width: 2.3; fill: none; marker-end: url(#greenArrow); }
      .purpleArrow { stroke: #7c3aed; stroke-width: 2.3; fill: none; marker-end: url(#purpleArrow); }
      .orangeArrow { stroke: #d97706; stroke-width: 2.3; fill: none; marker-end: url(#orangeArrow); }
      .redArrow { stroke: #dc2626; stroke-width: 2.1; fill: none; marker-end: url(#redArrow); }
      .shadow { filter: url(#shadow); }
      .thin { stroke-width: 1.4; }
    </style>

    <filter id="shadow" x="-7%" y="-7%" width="114%" height="125%">
      <feDropShadow dx="0" dy="6" stdDeviation="7" flood-color="#0f172a" flood-opacity="0.12"/>
    </filter>

    <marker id="arrow" viewBox="0 0 10 10" refX="9" refY="5" markerWidth="8" markerHeight="8" orient="auto-start-reverse">
      <path d="M 0 0 L 10 5 L 0 10 z" fill="#334155"/>
    </marker>
    <marker id="softArrow" viewBox="0 0 10 10" refX="9" refY="5" markerWidth="7" markerHeight="7" orient="auto-start-reverse">
      <path d="M 0 0 L 10 5 L 0 10 z" fill="#64748b"/>
    </marker>
    <marker id="greenArrow" viewBox="0 0 10 10" refX="9" refY="5" markerWidth="8" markerHeight="8" orient="auto-start-reverse">
      <path d="M 0 0 L 10 5 L 0 10 z" fill="#0f766e"/>
    </marker>
    <marker id="purpleArrow" viewBox="0 0 10 10" refX="9" refY="5" markerWidth="8" markerHeight="8" orient="auto-start-reverse">
      <path d="M 0 0 L 10 5 L 0 10 z" fill="#7c3aed"/>
    </marker>
    <marker id="orangeArrow" viewBox="0 0 10 10" refX="9" refY="5" markerWidth="8" markerHeight="8" orient="auto-start-reverse">
      <path d="M 0 0 L 10 5 L 0 10 z" fill="#d97706"/>
    </marker>
    <marker id="redArrow" viewBox="0 0 10 10" refX="9" refY="5" markerWidth="8" markerHeight="8" orient="auto-start-reverse">
      <path d="M 0 0 L 10 5 L 0 10 z" fill="#dc2626"/>
    </marker>
  </defs>

  <rect class="bg" x="0" y="0" width="1900" height="2280"/>

  <text class="title" x="52" y="60">VineContainer Viewport Overlay - Lifecycle Logic</text>
  <text class="subtitle" x="52" y="90">Source: PCGEditorProcess module, SelectedActorViewportOverlayBase, FVineContainerViewportOverlay, SVineContainerViewportOverlay, AVineContainer</text>
  <text class="subtitle" x="52" y="113">Core rule: old overlay is removed immediately on context change; new overlay creation is deferred through FTSTicker to avoid mutating Slate overlay slots during selection input.</text>

  <!-- Top lanes -->
  <rect class="section bootLane" x="38" y="138" width="410" height="362" rx="22"/>
  <rect class="section bootLane" x="480" y="138" width="410" height="362" rx="22"/>
  <rect class="section selectionLane" x="922" y="138" width="940" height="622" rx="22"/>

  <text class="label" x="66" y="176">1. Editor Module Boot</text>
  <text class="label" x="508" y="176">2. Base Listener Setup</text>
  <text class="label" x="950" y="176">3. Selection Driven Overlay Creation</text>

  <g class="shadow">
    <rect class="bootNode" x="66" y="202" width="354" height="78" rx="12"/>
    <text class="nodeTitle" x="86" y="226">StartupModule()</text>
    <text class="body" x="86" y="249">Bind non-Slate delegates first</text>
    <text class="mono" x="86" y="268">OnPostEngineInit -> InitializeEditorUI</text>

    <rect class="bootNode" x="66" y="322" width="354" height="78" rx="12"/>
    <text class="nodeTitle" x="86" y="346">InitializeEditorUI()</text>
    <text class="body" x="86" y="369">Skip commandlet, exit, no render, no GEditor</text>
    <text class="mono" x="86" y="388">Register FCSInstanceBrushEdMode</text>

    <rect class="bootNode" x="66" y="432" width="354" height="44" rx="12"/>
    <text class="mono" x="86" y="459">MakeUnique&lt;FVineContainerViewportOverlay&gt;()</text>

    <rect class="bootNode" x="508" y="202" width="354" height="120" rx="12"/>
    <text class="nodeTitle" x="528" y="226">Start()</text>
    <text class="body" x="528" y="249">Load LevelEditor if needed</text>
    <text class="mono" x="528" y="271">OnActorSelectionChanged</text>
    <text class="mono" x="528" y="290">OnMapChanged</text>
    <text class="mono" x="528" y="309">FEditorDelegates::NewCurrentLevel</text>

    <rect class="bootNode" x="508" y="350" width="354" height="108" rx="12"/>
    <text class="nodeTitle" x="528" y="374">World lifecycle delegates</text>
    <text class="mono" x="528" y="398">PreLevelRemovedFromWorld</text>
    <text class="mono" x="528" y="417">OnWorldBeginTearDown</text>
    <text class="mono" x="528" y="436">OnWorldCleanup</text>
  </g>

  <path class="arrow" d="M 243 280 L 243 318"/>
  <path class="arrow" d="M 243 400 L 243 428"/>
  <path class="arrow" d="M 420 454 C 452 454 468 244 504 244"/>
  <path class="arrow" d="M 685 322 L 685 346"/>

  <g class="shadow">
    <rect class="selectionNode" x="950" y="202" width="250" height="86" rx="12"/>
    <text class="nodeTitle" x="970" y="226">Selection changed</text>
    <text class="monoGreen" x="970" y="251">HandleActorSelectionChanged</text>
    <text class="body" x="970" y="270">or RefreshFromCurrentSelection</text>

    <rect class="selectionNode" x="1240" y="202" width="250" height="86" rx="12"/>
    <text class="nodeTitle" x="1260" y="226">Find supported actor</text>
    <text class="body" x="1260" y="251">Iterate selected UObject list</text>
    <text class="monoGreen" x="1260" y="270">IsValid(AActor) + SupportsActor</text>

    <rect class="selectionNode" x="1530" y="202" width="278" height="86" rx="12"/>
    <text class="nodeTitle" x="1550" y="226">Vine specific support</text>
    <text class="monoGreen" x="1550" y="251">FVineContainerViewportOverlay</text>
    <text class="monoGreen" x="1550" y="270">Actor->IsA&lt;AVineContainer&gt;()</text>

    <rect class="selectionNode" x="950" y="342" width="272" height="104" rx="12"/>
    <text class="nodeTitle" x="970" y="366">QueueSelectionRefresh()</text>
    <text class="body" x="970" y="389">If target changed and overlay exists:</text>
    <text class="monoGreen" x="970" y="409">RemoveOverlayForContextChange(true)</text>
    <text class="small" x="970" y="429">Then cache QueuedTargetActor + force flag</text>

    <rect class="selectionNode" x="1262" y="342" width="252" height="104" rx="12"/>
    <text class="nodeTitle" x="1282" y="366">Next ticker frame</text>
    <text class="monoGreen" x="1282" y="390">FTSTicker::AddTicker(0.0f)</text>
    <text class="monoGreen" x="1282" y="410">ApplyQueuedSelectionRefresh</text>
    <text class="small" x="1282" y="429">Avoids Slate mutation during input</text>

    <rect class="selectionNode" x="1554" y="342" width="254" height="104" rx="12"/>
    <text class="nodeTitle" x="1574" y="366">ApplySelectionRefresh()</text>
    <text class="monoGreen" x="1574" y="390">No target -> RemoveOverlay</text>
    <text class="monoGreen" x="1574" y="410">Target -> ShowOverlayForActor</text>
    <text class="small" x="1574" y="429">No-op when same target and not forced</text>

    <rect class="selectionNode" x="950" y="512" width="275" height="162" rx="12"/>
    <text class="nodeTitle" x="970" y="536">ShowOverlayForActor()</text>
    <text class="body" x="970" y="561">Always starts by removing stale overlay</text>
    <text class="monoGreen" x="970" y="584">guard: bStarted</text>
    <text class="monoGreen" x="970" y="603">guard: CanTouchViewportOverlay()</text>
    <text class="monoGreen" x="970" y="622">guard: IsValid(Actor)</text>
    <text class="monoGreen" x="970" y="641">GetFirstActiveViewport()</text>
    <text class="monoGreen" x="970" y="660">TargetActor = Actor</text>

    <rect class="widgetNode" x="1270" y="512" width="250" height="162" rx="12"/>
    <text class="nodeTitle" x="1290" y="536">Create overlay widget</text>
    <text class="monoPurple" x="1290" y="561">CreateOverlayWidget(TargetActor)</text>
    <text class="monoPurple" x="1290" y="582">SNew(SVineContainerViewportOverlay)</text>
    <text class="monoPurple" x="1290" y="603">.VineContainer(Cast&lt;AVineContainer&gt;)</text>
    <text class="small" x="1290" y="626">TargetActor is rechecked after construction</text>
    <text class="small" x="1290" y="646">Slate/game-thread guard is rechecked too</text>

    <rect class="selectionNode" x="1565" y="512" width="243" height="162" rx="12"/>
    <text class="nodeTitle" x="1585" y="536">Attach to viewport</text>
    <text class="monoGreen" x="1585" y="561">OverlayWidget = NewOverlayWidget</text>
    <text class="monoGreen" x="1585" y="582">OverlayViewport = ActiveViewport</text>
    <text class="monoGreen" x="1585" y="603">CacheTargetActorWorldContext</text>
    <text class="monoGreen" x="1585" y="624">AddOverlayWidget(widget, 250)</text>
    <text class="monoGreen" x="1585" y="645">Bind OnLevelActorDeleted</text>
  </g>

  <path class="greenArrow" d="M 1200 245 L 1236 245"/>
  <path class="greenArrow" d="M 1490 245 L 1526 245"/>
  <path class="greenArrow" d="M 1669 288 C 1669 316 1086 314 1086 338"/>
  <path class="greenArrow" d="M 1222 394 L 1258 394"/>
  <path class="greenArrow" d="M 1514 394 L 1550 394"/>
  <path class="greenArrow" d="M 1681 446 C 1681 484 1087 484 1087 508"/>
  <path class="purpleArrow" d="M 1225 593 L 1266 593"/>
  <path class="greenArrow" d="M 1520 593 L 1561 593"/>

  <rect class="warnNode" x="1254" y="694" width="560" height="56" rx="10"/>
  <text class="nodeTitle" x="1274" y="718">Important safety invariant</text>
  <text class="body" x="1274" y="739">Creation is deferred; stale removal can happen immediately on context change.</text>

  <!-- Widget lane -->
  <rect class="section widgetLane" x="38" y="542" width="852" height="540" rx="22"/>
  <text class="label" x="66" y="580">4. Slate Widget Surface</text>

  <rect x="66" y="612" width="382" height="310" rx="16" fill="#e5e7eb" stroke="#94a3b8" stroke-width="1.6"/>
  <rect x="90" y="638" width="335" height="252" rx="10" fill="#111827" stroke="#334155" stroke-width="1.4"/>
  <rect x="140" y="668" width="252" height="186" rx="10" fill="#0b1120" stroke="#475569" stroke-width="1.2"/>
  <rect x="210" y="692" width="154" height="120" rx="8" fill="#1f2937" stroke="#64748b" stroke-width="1.2"/>
  <text class="small" x="224" y="721" fill="#e5e7eb">Viewport</text>
  <text class="small" x="224" y="742" fill="#e5e7eb">top-right overlay</text>

  <g class="shadow">
    <rect class="widgetNode" x="482" y="612" width="374" height="96" rx="12"/>
    <text class="nodeTitle" x="502" y="637">Construct()</text>
    <text class="monoPurple" x="502" y="662">VineContainer = InArgs._VineContainer</text>
    <text class="monoPurple" x="502" y="683">SetVisibility(SelfHitTestInvisible)</text>

    <rect class="widgetNode" x="482" y="738" width="374" height="120" rx="12"/>
    <text class="nodeTitle" x="502" y="763">Panel layout</text>
    <text class="body" x="502" y="787">SOverlay slot: HAlign_Right, VAlign_Top</text>
    <text class="body" x="502" y="807">Padding 16, width 280, dark translucent border</text>
    <text class="monoPurple" x="502" y="831">Actor label + "Tube N   Plane N"</text>

    <rect class="widgetNode" x="482" y="890" width="374" height="146" rx="12"/>
    <text class="nodeTitle" x="502" y="915">Weak command panel</text>
    <text class="monoPurple" x="502" y="940">TWeakObjectPtr&lt;AVineContainer&gt;</text>
    <text class="monoPurple" x="502" y="961">No actor ownership from Slate</text>
    <text class="monoPurple" x="502" y="982">Missing actor -> no-op</text>
    <text class="small" x="502" y="1007">Panel must survive selection churn safely</text>
  </g>

  <path class="purpleArrow" d="M 1687 674 C 1687 790 865 790 860 790"/>
  <path class="purpleArrow" d="M 669 708 L 669 734"/>
  <path class="purpleArrow" d="M 669 858 L 669 886"/>

  <!-- Cleanup lane -->
  <rect class="section cleanupLane" x="38" y="1120" width="852" height="595" rx="22"/>
  <text class="label" x="66" y="1158">5. Removal and Context-Change Safety</text>

  <g class="shadow">
    <rect class="cleanupNode" x="66" y="1188" width="252" height="122" rx="12"/>
    <text class="nodeTitle" x="86" y="1212">Stop()</text>
    <text class="mono" x="86" y="1237">CancelQueuedSelectionRefresh</text>
    <text class="mono" x="86" y="1258">RemoveOverlay</text>
    <text class="mono" x="86" y="1279">Unbind selection/map/level/world</text>
    <text class="small" x="86" y="1299">Clear context and bStarted=false</text>

    <rect class="cleanupNode" x="354" y="1188" width="246" height="122" rx="12"/>
    <text class="nodeTitle" x="374" y="1212">RemoveOverlay()</text>
    <text class="mono" x="374" y="1237">UnbindActorDestroyed</text>
    <text class="mono" x="374" y="1258">if CanTouch + viewport valid:</text>
    <text class="mono" x="374" y="1279">RemoveOverlayWidget</text>
    <text class="small" x="374" y="1299">Reset widget, viewport, level/world</text>

    <rect class="cleanupNode" x="636" y="1188" width="220" height="122" rx="12"/>
    <text class="nodeTitle" x="656" y="1212">Forget without Slate</text>
    <text class="body" x="656" y="1237">Used when viewport cannot be touched</text>
    <text class="mono" x="656" y="1258">Reset widget/viewport</text>
    <text class="mono" x="656" y="1279">Reset TargetActor/context</text>
    <text class="small" x="656" y="1299">No RemoveOverlayWidget call</text>

    <rect class="cleanupNode" x="66" y="1360" width="252" height="124" rx="12"/>
    <text class="nodeTitle" x="86" y="1384">Actor destroyed</text>
    <text class="mono" x="86" y="1409">OnLevelActorDeleted</text>
    <text class="body" x="86" y="1430">If target or target already invalid:</text>
    <text class="mono" x="86" y="1451">QueueSelectionRefresh(nullptr, true)</text>
    <text class="small" x="86" y="1472">Exit/teardown/no Slate -> forget only</text>

    <rect class="cleanupNode" x="354" y="1360" width="246" height="124" rx="12"/>
    <text class="nodeTitle" x="374" y="1384">Map or current level changed</text>
    <text class="mono" x="374" y="1409">OnMapChanged</text>
    <text class="mono" x="374" y="1430">skip EMapChangeType::SaveMap</text>
    <text class="mono" x="374" y="1451">NewCurrentLevel</text>
    <text class="small" x="374" y="1472">RemoveOverlayForContextChange(true)</text>

    <rect class="cleanupNode" x="636" y="1360" width="220" height="124" rx="12"/>
    <text class="nodeTitle" x="656" y="1384">Level/world teardown</text>
    <text class="mono" x="656" y="1409">PreLevelRemovedFromWorld</text>
    <text class="mono" x="656" y="1430">OnWorldBeginTearDown</text>
    <text class="mono" x="656" y="1451">OnWorldCleanup</text>
    <text class="small" x="656" y="1472">Uses cached level/world after actor invalidates</text>

    <rect class="warnNode" x="98" y="1540" width="724" height="108" rx="12"/>
    <text class="nodeTitle" x="118" y="1565">CanTouchViewportOverlay()</text>
    <text class="monoOrange" x="118" y="1591">IsInGameThread() + !IsEngineExitRequested() + FSlateApplication::IsInitialized()</text>
    <text class="body" x="118" y="1618">All AddOverlayWidget and RemoveOverlayWidget paths pass through this guard.</text>
  </g>

  <path class="arrow" d="M 318 1249 L 350 1249"/>
  <path class="arrow" d="M 600 1249 L 632 1249"/>
  <path class="softArrow" d="M 192 1360 C 192 1332 746 1334 746 1314"/>
  <path class="arrow" d="M 477 1360 L 477 1314"/>
  <path class="softArrow" d="M 746 1360 L 746 1314"/>
  <path class="redArrow" d="M 856 1594 C 900 1594 900 721 1250 721"/>

  <!-- Lifecycle lane -->
  <rect class="section actionLane" x="922" y="800" width="940" height="915" rx="22"/>
  <text class="label" x="950" y="838">6. Lifecycle Hazards and Guards</text>

  <g class="shadow">
    <rect class="warnNode" x="950" y="872" width="274" height="172" rx="12"/>
    <text class="nodeTitle" x="970" y="897">Hazard A: selection re-entry</text>
    <text class="body" x="970" y="923">Selection can change while Slate is</text>
    <text class="body" x="970" y="944">still processing a click from overlay.</text>
    <text class="monoOrange" x="970" y="970">Do not Add/Remove synchronously</text>
    <text class="small" x="970" y="996">Fix: queue creation via FTSTicker</text>
    <text class="small" x="970" y="1018">Old overlay may be removed first</text>

    <rect class="warnNode" x="1264" y="872" width="274" height="172" rx="12"/>
    <text class="nodeTitle" x="1284" y="897">Hazard B: stale target actor</text>
    <text class="body" x="1284" y="923">Actor can be deleted or invalidated</text>
    <text class="body" x="1284" y="944">between selection and widget create.</text>
    <text class="monoOrange" x="1284" y="970">TargetActor rechecked after SNew</text>
    <text class="small" x="1284" y="996">Widget stores weak AVineContainer</text>
    <text class="small" x="1284" y="1018">Deleted actor queues nullptr refresh</text>

    <rect class="warnNode" x="1578" y="872" width="244" height="172" rx="12"/>
    <text class="nodeTitle" x="1598" y="897">Hazard C: no safe Slate</text>
    <text class="body" x="1598" y="923">Exit, non-game thread, or Slate not</text>
    <text class="body" x="1598" y="944">initialized makes viewport unsafe.</text>
    <text class="monoOrange" x="1598" y="970">CanTouchViewportOverlay()</text>
    <text class="small" x="1598" y="996">If false, forget state only</text>
    <text class="small" x="1598" y="1018">No viewport mutation attempted</text>

    <rect class="cleanupNode" x="950" y="1098" width="274" height="214" rx="12"/>
    <text class="nodeTitle" x="970" y="1124">Context changes</text>
    <text class="mono" x="970" y="1150">OnMapChanged</text>
    <text class="mono" x="970" y="1171">NewCurrentLevel</text>
    <text class="mono" x="970" y="1192">PreLevelRemovedFromWorld</text>
    <text class="body" x="970" y="1220">Problem: active viewport/actor level</text>
    <text class="body" x="970" y="1241">can disappear before selection fires.</text>
    <text class="small" x="970" y="1269">Remove overlay and cancel pending refresh</text>
    <text class="small" x="970" y="1291">SaveMap is ignored</text>

    <rect class="cleanupNode" x="1264" y="1098" width="274" height="214" rx="12"/>
    <text class="nodeTitle" x="1284" y="1124">World teardown</text>
    <text class="mono" x="1284" y="1150">OnWorldBeginTearDown</text>
    <text class="mono" x="1284" y="1171">OnWorldCleanup</text>
    <text class="body" x="1284" y="1200">Problem: UWorld/ULevel may already be</text>
    <text class="body" x="1284" y="1221">partially destroyed when delegates fire.</text>
    <text class="small" x="1284" y="1249">Use cached TargetWorld/TargetLevel</text>
    <text class="small" x="1284" y="1271">Forget overlay without touching Slate</text>

    <rect class="cleanupNode" x="1578" y="1098" width="244" height="214" rx="12"/>
    <text class="nodeTitle" x="1598" y="1124">Module shutdown</text>
    <text class="mono" x="1598" y="1150">ShutdownModule</text>
    <text class="mono" x="1598" y="1171">VineContainerViewportOverlay.Reset</text>
    <text class="body" x="1598" y="1200">Problem: delegates and ticker can</text>
    <text class="body" x="1598" y="1221">outlive the module owner.</text>
    <text class="small" x="1598" y="1249">Stop cancels ticker before removal</text>
    <text class="small" x="1598" y="1271">All delegate handles are removed</text>

    <rect class="actionNode" x="950" y="1370" width="872" height="232" rx="12"/>
    <text class="nodeTitle" x="970" y="1396">Safe lifecycle sequence</text>
    <text class="body" x="970" y="1424">1. Selection event only chooses a candidate AVineContainer and records a queued target.</text>
    <text class="body" x="970" y="1448">2. If the candidate differs from the current target, stale overlay is removed before the next add.</text>
    <text class="body" x="970" y="1472">3. Next ticker frame calls ApplySelectionRefresh, after Slate input has unwound.</text>
    <text class="body" x="970" y="1496">4. ShowOverlayForActor validates actor, LevelEditor, active viewport, and Slate touch safety.</text>
    <text class="body" x="970" y="1520">5. Once attached, target actor level/world are cached for later unload/teardown checks.</text>
    <text class="body" x="970" y="1544">6. Any map, current-level, actor-delete, world-teardown, or shutdown path clears the cached state.</text>
    <text class="small" x="970" y="1574">The overlay is treated as editor UI state, not as part of the AVineContainer actor lifetime.</text>
  </g>

  <path class="redArrow" d="M 856 1594 C 900 1594 910 958 946 958"/>
  <path class="redArrow" d="M 856 1594 C 910 1594 912 1188 946 1188"/>
  <path class="greenArrow" d="M 1687 674 C 1687 780 1840 780 1840 1346 L 1386 1346 L 1386 1366"/>

  <!-- State lane -->
  <rect class="section stateLane" x="38" y="1754" width="1824" height="354" rx="22"/>
  <text class="label" x="66" y="1792">7. State Held by FSelectedActorViewportOverlayBase</text>

  <g class="shadow">
    <rect class="stateNode" x="66" y="1822" width="266" height="118" rx="12"/>
    <text class="nodeTitle" x="86" y="1847">Target state</text>
    <text class="monoOrange" x="86" y="1872">TargetActor</text>
    <text class="monoOrange" x="86" y="1893">TargetLevel</text>
    <text class="monoOrange" x="86" y="1914">TargetWorld</text>

    <rect class="stateNode" x="368" y="1822" width="266" height="118" rx="12"/>
    <text class="nodeTitle" x="388" y="1847">Queued refresh state</text>
    <text class="monoOrange" x="388" y="1872">QueuedTargetActor</text>
    <text class="monoOrange" x="388" y="1893">bQueuedForceRefresh</text>
    <text class="monoOrange" x="388" y="1914">QueuedSelectionRefreshHandle</text>

    <rect class="stateNode" x="670" y="1822" width="266" height="118" rx="12"/>
    <text class="nodeTitle" x="690" y="1847">Slate attachment state</text>
    <text class="monoOrange" x="690" y="1872">OverlayViewport</text>
    <text class="monoOrange" x="690" y="1893">OverlayWidget</text>
    <text class="small" x="690" y="1916">Stored so RemoveOverlay can detach later</text>

    <rect class="stateNode" x="972" y="1822" width="266" height="118" rx="12"/>
    <text class="nodeTitle" x="992" y="1847">Delegate handles</text>
    <text class="monoOrange" x="992" y="1872">ActorSelectionChangedHandle</text>
    <text class="monoOrange" x="992" y="1893">ActorDestroyedHandle</text>
    <text class="monoOrange" x="992" y="1914">Map/level/world handles</text>

    <rect class="stateNode" x="1274" y="1822" width="266" height="118" rx="12"/>
    <text class="nodeTitle" x="1294" y="1847">Start flag</text>
    <text class="monoOrange" x="1294" y="1872">bStarted</text>
    <text class="body" x="1294" y="1896">Short-circuits refresh and ticker</text>
    <text class="small" x="1294" y="1917">Stop sets false after cleanup</text>

    <rect class="stateNode" x="1576" y="1822" width="246" height="118" rx="12"/>
    <text class="nodeTitle" x="1596" y="1847">Z-order</text>
    <text class="monoOrange" x="1596" y="1872">GetOverlayZOrder() = 250</text>
    <text class="body" x="1596" y="1896">Vine overlay sits above base default</text>
  </g>

  <rect class="whiteNode" x="66" y="1980" width="1756" height="78" rx="12"/>
  <text class="nodeTitle" x="86" y="2006">End-to-end mental model</text>
  <text class="body" x="86" y="2032">The module owns one FVineContainerViewportOverlay. The base class owns editor-lifecycle bookkeeping: selection, queued refresh, viewport attachment, and teardown cleanup.</text>
  <text class="body" x="86" y="2054">The Vine subclass only identifies AVineContainer and creates a weak Slate panel. Actor, level, world, viewport, and module lifetimes are intentionally kept separate.</text>

  <!-- Source footer -->
  <rect class="section" x="38" y="2140" width="1824" height="104" rx="18"/>
  <text class="label" x="66" y="2176">Key Files</text>
  <text class="mono" x="66" y="2204">Plugins/PCGPlugins/Source/PCGEditorProcess/Private/PCGEditorProcess.cpp</text>
  <text class="mono" x="620" y="2204">Plugins/PCGPlugins/Source/PCGEditorProcess/Private/SelectedActorViewportOverlayBase.cpp</text>
  <text class="mono" x="66" y="2228">Plugins/PCGPlugins/Source/PCGEditorProcess/Private/VineContainerViewportOverlay.cpp</text>
  <text class="mono" x="620" y="2228">Plugins/PCGPlugins/Source/PCGEditorProcess/Private/SVineContainerViewportOverlay.cpp</text>
  <text class="mono" x="1280" y="2228">Plugins/PCGPlugins/Source/GeometryScriptExtraEditor/Private/GeometryEditorActor.cpp</text>
</svg>
